<svg id="Layer_1" data-name="Layer 1" xmlns="http://www.w3.org/2000/svg" viewBox="0 0 339.9 203.15"><defs><style>.cls-1{fill:#020017;}.cls-2{fill:none;stroke:#ffc425;stroke-width:4.48px;}.cls-3{fill:#ffc425;}</style></defs><title>logo</title><rect class="cls-1" x="2.24" y="2.24" width="335.42" height="198.67" rx="10.3" ry="10.3"/><rect class="cls-2" x="2.24" y="2.24" width="335.42" height="198.67" rx="10.3" ry="10.3"/><path class="cls-3" d="M534.24,326a4.3,4.3,0,1,1-4.26-4.19A4.22,4.22,0,0,1,534.24,326Zm-7.53,0a3.26,3.26,0,0,0,3.27,3.35,3.21,3.21,0,0,0,3.19-3.32A3.23,3.23,0,1,0,526.71,326Zm2.58,2.17h-1V324a11.51,11.51,0,0,1,1.61-.13,2.22,2.22,0,0,1,1.43.33,1.05,1.05,0,0,1,.43.89,1.08,1.08,0,0,1-.87,1v0.05a1.19,1.19,0,0,1,.75,1,3.6,3.6,0,0,0,.3,1h-1a3.15,3.15,0,0,1-.33-1,0.74,0.74,0,0,0-.87-0.64h-0.46v1.66Zm0-2.35h0.46c0.54,0,1-.18,1-0.61s-0.28-.64-0.89-0.64a2.3,2.3,0,0,0-.53.05v1.2Z" transform="translate(-219.01 -161.3)"/><path class="cls-3" d="M256.2,195.37h26.55v60.22h38.94V272H256.2V195.37Z" transform="translate(-219.01 -161.3)"/><path class="cls-3" d="M367.55,195.37L382,243.53h0.25l15.17-48.16h34.76V272h-22V217.09H409.9L392.46,272H369.83l-16.94-54.82h-0.25V272H332.41V195.37h35.14Z" transform="translate(-219.01 -161.3)"/><path class="cls-3" d="M516.78,271.68c-7.58.58-17.95,1.73-22.75,1.73-30,0-50.44-14.25-50.44-39.77S464.06,194,494,194a147.59,147.59,0,0,1,22.37,2.07l2,17.81c-6.57-1.72-13.14-3.1-20-3.1-20.48,0-28.32,12.76-28.32,23,0,11.84,7.71,22.87,23.89,22.87a106.28,106.28,0,0,0,25-3.11Z" transform="translate(-219.01 -161.3)"/><path class="cls-3" d="M256.2,281.59H307v10.56H290.17v38.71H273.11V292.15H256.2V281.59Z" transform="translate(-219.01 -161.3)"/><path class="cls-3" d="M308.6,281.59h28.93c14.3,0,19.83,5.24,19.83,15,0,5.84-4.39,10-11.86,12.49,4,7.39,7.88,15.14,11.86,21.79H339c-3.74-9.31-7.48-18.69-12-27.63a30,30,0,0,0,4.23.37c4.71,0,9.83-1.62,9.83-6.43,0-5.24-5.28-5.24-7.72-5.24h-8.37v38.93H308.6V281.59Z" transform="translate(-219.01 -161.3)"/><path class="cls-3" d="M376.12,281.59v28.08c0,7.09,2.19,11.3,9.92,11.3s9.91-4.21,9.91-11.3V281.59H413V315c0,11.9-11.06,16.77-27,16.77s-27-4.87-27-16.77V281.59h17.06Z" transform="translate(-219.01 -161.3)"/><path class="cls-3" d="M461.44,330.64c-4.88.37-11.54,1.11-14.63,1.11-19.26,0-32.43-9.16-32.43-25.56s13.17-25.49,32.43-25.49A94.56,94.56,0,0,1,461.19,282l1.3,11.45a50.56,50.56,0,0,0-12.84-2c-13.16,0-18.21,8.2-18.21,14.78,0,7.61,5,14.7,15.36,14.7a68.31,68.31,0,0,0,16.09-2Z" transform="translate(-219.01 -161.3)"/><path class="cls-3" d="M465.16,281.59h17.07v49.28H465.16V281.59Zm35,0h19.34l-18.69,23.12,20.89,26.15H501.41l-18.29-26Z" transform="translate(-219.01 -161.3)"/></svg>